<?xml version="1.0" standalone="no"?>
<!DOCTYPE svg PUBLIC "-//W3C//DTD SVG 20010904//EN"
 "http://www.w3.org/TR/2001/REC-SVG-20010904/DTD/svg10.dtd">
<svg version="1.0" xmlns="http://www.w3.org/2000/svg"
 width="700.000000pt" height="700.000000pt" viewBox="0 0 700.000000 700.000000"
 preserveAspectRatio="xMidYMid meet">
<metadata>
Created by potrace 1.14, written by Peter Selinger 2001-2017
</metadata>
<g transform="translate(0.000000,700.000000) scale(0.100000,-0.100000)"
fill="#000000" stroke="none">
<path d="M2370 6810 c-9 -5 -36 -149 -65 -345 -3 -22 -17 -110 -31 -195 -14
-85 -27 -168 -30 -185 -2 -16 -9 -55 -14 -85 -5 -30 -12 -71 -14 -90 -7 -52
-16 -108 -27 -175 -6 -33 -12 -71 -14 -85 -5 -37 -24 -151 -30 -180 -3 -14 -8
-47 -11 -75 -4 -27 -8 -57 -10 -65 -1 -8 -3 -18 -3 -21 -1 -3 -181 -6 -401 -6
-220 0 -403 -2 -405 -5 -2 -2 -5 -27 -6 -56 -1 -29 -7 -53 -14 -56 -8 -3 -13
-37 -14 -108 -2 -202 -12 -559 -16 -606 -12 -138 -16 -302 -7 -302 5 0 8 -42
7 -95 -2 -91 -1 -95 19 -96 11 0 159 -1 327 -1 l306 -1 -13 -71 c-6 -39 -15
-93 -18 -121 -4 -27 -13 -90 -21 -140 -8 -49 -17 -108 -20 -130 -3 -22 -10
-65 -15 -95 -5 -30 -12 -73 -16 -95 -19 -135 -34 -219 -40 -224 -3 -3 -195 -7
-427 -7 -232 -1 -427 -2 -434 -3 -8 -1 -11 -142 -12 -561 0 -551 0 -560 19
-560 22 0 22 -3 21 -96 l-1 -60 313 0 c266 0 312 -2 311 -15 0 -15 -13 -115
-19 -153 -2 -11 -8 -48 -14 -81 -6 -33 -13 -82 -17 -110 -3 -27 -8 -57 -9 -67
-2 -9 -7 -38 -11 -65 -3 -26 -8 -57 -10 -68 -4 -20 -11 -63 -20 -125 -6 -43
-11 -77 -24 -155 -5 -33 -17 -107 -25 -165 -9 -58 -19 -118 -21 -135 -3 -16
-7 -45 -10 -64 -6 -44 -13 -89 -20 -124 -3 -15 -2 -27 3 -28 4 -1 22 -2 38 -4
44 -4 45 -4 40 -17 -4 -13 -12 -64 -21 -133 -3 -22 -7 -45 -9 -51 -2 -7 209
-10 691 -10 474 0 694 3 695 11 1 5 3 19 4 30 1 11 5 38 9 60 6 37 10 65 37
245 11 75 17 115 24 150 3 14 7 48 11 75 3 28 8 57 9 67 2 9 7 38 11 65 3 26
8 57 10 68 2 11 7 40 10 65 7 54 12 87 24 160 5 30 11 69 13 85 35 248 73 481
78 485 6 4 325 5 362 1 8 -1 3 -72 -8 -111 -2 -8 -6 -40 -10 -70 -3 -30 -7
-66 -9 -80 -2 -14 -7 -47 -11 -73 -4 -27 -8 -57 -10 -66 -2 -10 -6 -42 -10
-72 -3 -30 -8 -61 -10 -69 -2 -8 -6 -40 -10 -71 -3 -31 -7 -65 -9 -75 -2 -11
-7 -44 -11 -74 -4 -30 -9 -62 -10 -71 -2 -9 -6 -40 -10 -69 -4 -29 -8 -60 -10
-69 -1 -9 -6 -41 -10 -71 -4 -30 -9 -62 -10 -70 -6 -31 -29 -215 -29 -230 0
-8 5 -14 12 -13 15 4 15 -31 -2 -124 -7 -40 -10 -76 -7 -81 6 -9 1365 -11
1375 -1 3 3 12 50 20 105 9 54 18 117 21 139 4 22 8 54 11 70 2 17 6 41 9 55
2 14 7 43 10 65 6 43 9 64 21 140 4 28 8 52 9 55 0 3 5 32 9 65 4 32 9 66 11
75 1 8 6 37 9 63 4 27 9 56 11 65 1 10 6 40 9 67 4 28 8 61 11 75 3 14 7 40
10 58 3 17 7 44 9 60 3 15 17 110 32 212 14 102 28 187 30 189 3 3 202 5 444
5 306 0 440 3 441 10 1 6 2 293 3 639 l2 627 -111 1 c-60 1 -218 2 -350 3
-132 0 -239 4 -239 9 1 4 5 31 9 60 4 28 8 59 10 67 3 15 10 65 20 138 3 21 7
49 10 62 2 13 9 58 15 100 6 42 12 87 15 99 2 13 7 42 9 65 11 87 17 122 21
136 2 8 7 42 11 75 3 33 8 63 10 66 2 3 196 7 431 7 235 0 435 1 444 1 16 1
17 53 16 639 l0 637 -96 0 c-93 0 -96 1 -95 23 1 16 -4 22 -20 23 -11 0 -123
1 -248 1 -126 1 -228 4 -228 7 0 3 7 47 14 96 8 50 18 110 21 135 3 25 12 86
20 135 8 50 16 106 19 125 2 19 14 98 26 175 11 77 23 156 26 175 3 19 9 60
14 90 5 30 12 78 15 106 3 28 8 61 10 75 3 13 8 42 10 64 3 22 10 65 15 95 6
30 13 82 16 115 l6 60 -91 -1 -91 -1 3 30 2 31 -613 1 c-338 0 -618 -2 -622
-5 -9 -5 -29 -125 -65 -374 -3 -21 -7 -48 -10 -60 -2 -12 -7 -39 -10 -61 -3
-22 -10 -67 -15 -100 -5 -33 -11 -77 -14 -97 -8 -50 -12 -74 -41 -268 -15 -91
-28 -181 -31 -200 -3 -19 -9 -60 -14 -90 -5 -30 -12 -73 -15 -95 -3 -23 -7
-50 -9 -60 -2 -11 -7 -38 -10 -61 l-7 -41 -182 1 c-176 1 -182 2 -180 21 3 30
17 136 28 205 2 14 11 72 20 130 8 58 17 116 20 130 2 14 6 43 9 65 4 35 40
277 51 345 5 30 9 53 35 235 11 77 26 178 34 225 8 47 12 87 11 90 -2 3 -42 4
-90 4 l-87 -2 4 29 c3 16 2 30 -1 30 -21 4 -1225 3 -1231 -1z m1335 -2908 c-3
-42 -8 -79 -10 -82 -3 -5 -8 -45 -21 -147 -3 -27 -7 -55 -9 -63 -2 -8 -6 -33
-9 -55 -15 -110 -37 -276 -40 -292 -2 -10 -7 -45 -10 -78 -11 -98 7 -90 -197
-91 l-181 0 6 45 c13 102 17 128 26 181 5 30 12 75 15 100 3 25 10 70 15 100
5 30 12 75 15 100 3 25 8 56 10 70 2 14 11 72 20 130 8 58 18 117 20 131 l6
25 175 2 176 1 -7 -77z"/>
</g>
</svg>
